# xmcd
#
# Track frame offsets:
#   150
#   15111
#   31144
#   43191
#   59842
#   73209
#   89977
#   102645
#   118085
#   131017
#   148351
#   160770
#   172887
#   183352
#   195687
#
# Disc length: 2800 seconds
#
# Revision: 0
# Processed by: cddbd v1.5.2PL0 Copyright (c) Steve Scherf et al.
# Submitted via: uFREEDB ActiveX Control 1.5
#
DISCID=e20aee0f
DTITLE=San Marino - Pra Sempre Sucessos
DYEAR=2002
DGENRE=pop
TTITLE0=Essa cama eu não vendo
TTITLE1=Coração de Pedra
TTITLE2=Vida de solteiro
TTITLE3=Foto 3x4
TTITLE4=Misturinha
TTITLE5=Mete o pé na bunda dele
TTITLE6=Peito Apaixonado
TTITLE7=Alô Galera
TTITLE8=Namorinho no sofá
TTITLE9=Fofoqueira
TTITLE10=Colinho do Pai
TTITLE11=Morenaça
TTITLE12=Perfume de Mulher
TTITLE13=Mulher transgênica
TTITLE14=Daí que morro
EXTD=
EXTT0=
EXTT1=
EXTT2=
EXTT3=
EXTT4=
EXTT5=
EXTT6=
EXTT7=
EXTT8=
EXTT9=
EXTT10=
EXTT11=
EXTT12=
EXTT13=
EXTT14=
PLAYORDER=
